<svg width="128" height="128" viewBox="0 0 128 128" fill="none" xmlns="http://www.w3.org/2000/svg">
<g clip-path="url(#clip0_16_13)">
<rect width="128" height="128" fill="white"/>
<path d="M65 24V31.5833H120.417V87H128V24H65Z" fill="#54545C" stroke="black"/>
<path d="M63 108V100.417H7.58334L7.58334 45H3.8147e-06L3.8147e-06 108L63 108Z" fill="white" stroke="#020202"/>
<path d="M47.5697 94H30.4125V50.7021H15V39H62.9822V50.7021H55.1306H47.5697V94Z" fill="url(#paint0_linear_16_13)"/>
<path d="M97.5875 94H80.4303V50.7021H65.0178V39H113V50.7021H105.148H97.5875V94Z" fill="url(#paint1_linear_16_13)"/>
<path d="M47.5697 94H30.4125V50.7021H15V39H62.9822V50.7021H55.1306H47.5697V94Z" stroke="black"/>
<path d="M97.5875 94H80.4303V50.7021H65.0178V39H113V50.7021H105.148H97.5875V94Z" stroke="black"/>
</g>
<defs>
<linearGradient id="paint0_linear_16_13" x1="64" y1="39" x2="64" y2="94" gradientUnits="userSpaceOnUse">
<stop stop-color="#515059"/>
<stop offset="1" stop-color="#F1F1F1"/>
</linearGradient>
<linearGradient id="paint1_linear_16_13" x1="64" y1="39" x2="64" y2="94" gradientUnits="userSpaceOnUse">
<stop stop-color="#515059"/>
<stop offset="1" stop-color="#F1F1F1"/>
</linearGradient>
<clipPath id="clip0_16_13">
<rect width="128" height="128" fill="white"/>
</clipPath>
</defs>
</svg>
